<?xml version="1.0" standalone="no"?>
<!DOCTYPE svg PUBLIC "-//W3C//DTD SVG 20010904//EN"
 "http://www.w3.org/TR/2001/REC-SVG-20010904/DTD/svg10.dtd">
<svg version="1.0" xmlns="http://www.w3.org/2000/svg"
 width="140.000000pt" height="140.000000pt" viewBox="0 0 140.000000 140.000000"
 preserveAspectRatio="xMidYMid meet">
<metadata>
Created by potrace 1.11, written by Peter Selinger 2001-2013
</metadata>
<g transform="translate(0.000000,140.000000) scale(0.100000,-0.100000)"
fill="#000000" stroke="none">
<path d="M0 700 l0 -695 700 0 700 -1 0 696 0 696 -700 -1 -700 0 0 -695z
m587 474 c39 -45 43 -65 43 -215 l0 -139 70 0 70 0 2 193 3 192 88 1 c88 0 88
0 118 -33 l29 -34 0 -482 0 -482 -84 1 c-80 0 -86 2 -120 32 l-36 31 0 161 0
160 -70 0 -70 0 0 -190 c0 -174 -1 -190 -17 -191 -10 0 -50 -1 -89 -3 -68 -3
-74 -1 -108 29 l-36 31 0 480 c0 264 3 483 6 487 3 3 44 5 91 3 79 -3 86 -5
110 -32z"/>
<path d="M410 719 c0 -304 3 -458 10 -454 14 9 14 915 0 915 -7 0 -10 -160
-10 -461z"/>
<path d="M460 720 c0 -300 3 -460 10 -460 6 0 10 82 10 225 l0 225 185 0 185
0 0 -219 c0 -131 4 -222 10 -226 6 -4 10 91 12 257 4 387 -1 658 -12 658 -6 0
-10 -84 -10 -222 l0 -223 -185 3 -185 3 0 219 c0 140 -4 220 -10 220 -7 0 -10
-160 -10 -460z"/>
<path d="M510 970 l0 -210 155 0 155 0 0 210 c0 133 -4 210 -10 210 -6 0 -10
-72 -10 -195 l0 -195 -135 0 -135 0 0 195 c0 123 -4 195 -10 195 -6 0 -10 -77
-10 -210z"/>
<path d="M900 726 c0 -293 4 -457 10 -461 7 -4 10 150 10 454 0 301 -3 461
-10 461 -7 0 -10 -158 -10 -454z"/>
<path d="M510 475 c1 -119 5 -205 11 -205 5 0 9 79 9 189 l0 189 28 5 c15 3
75 3 135 0 l107 -6 0 -189 c0 -119 4 -188 10 -188 6 0 10 75 10 205 l0 205
-155 0 -156 0 1 -205z"/>
</g>
</svg>
