<?xml version="1.0" encoding="UTF-8" standalone="no"?>
<!-- Created with Inkscape (http://www.inkscape.org/) -->

<svg
   xmlns:dc="http://purl.org/dc/elements/1.1/"
   xmlns:cc="http://creativecommons.org/ns#"
   xmlns:rdf="http://www.w3.org/1999/02/22-rdf-syntax-ns#"
   xmlns:svg="http://www.w3.org/2000/svg"
   xmlns="http://www.w3.org/2000/svg"
   xmlns:sodipodi="http://sodipodi.sourceforge.net/DTD/sodipodi-0.dtd"
   xmlns:inkscape="http://www.inkscape.org/namespaces/inkscape"
   width="100"
   height="150"
   viewBox="0 0 26.458332 39.687501"
   version="1.1"
   id="svg8"
   inkscape:version="0.92.2 (5c3e80d, 2017-08-06)"
   sodipodi:docname="restaurant_marker.svg">
  <defs
     id="defs2" />
  <sodipodi:namedview
     id="base"
     pagecolor="#ffffff"
     bordercolor="#666666"
     borderopacity="1.0"
     inkscape:pageopacity="0.0"
     inkscape:pageshadow="2"
     inkscape:zoom="2.8"
     inkscape:cx="248.97726"
     inkscape:cy="93.281465"
     inkscape:document-units="mm"
     inkscape:current-layer="layer1"
     showgrid="true"
     showguides="true"
     inkscape:snap-intersection-paths="true"
     inkscape:snap-bbox="false"
     inkscape:snap-center="false"
     inkscape:snap-object-midpoints="false"
     units="px"
     inkscape:snap-nodes="false"
     inkscape:window-width="3840"
     inkscape:window-height="2027"
     inkscape:window-x="0"
     inkscape:window-y="33"
     inkscape:window-maximized="1" />
  <metadata
     id="metadata5">
    <rdf:RDF>
      <cc:Work
         rdf:about="">
        <dc:format>image/svg+xml</dc:format>
        <dc:type
           rdf:resource="http://purl.org/dc/dcmitype/StillImage" />
        <dc:title></dc:title>
      </cc:Work>
    </rdf:RDF>
  </metadata>
  <g
     inkscape:label="Layer 1"
     inkscape:groupmode="layer"
     id="layer1"
     transform="translate(0,-257.31248)">
    <g
       id="g945">
      <path
         id="path826"
         d="m 13.253876,257.3125 a 13.229166,13.282253 0 0 0 -8.5281612,3.10733 13.229166,13.282253 0 0 0 -2.9533083,16.81606 l 11.4566645,19.76409 11.456665,-19.76409 a 13.229166,13.282253 0 0 0 -2.952793,-16.81606 13.229166,13.282253 0 0 0 -8.479067,-3.10733 z m -0.07235,9.29499 a 3.9687499,3.9846762 0 0 1 3.96875,3.98468 3.9687499,3.9846762 0 0 1 -3.96875,3.98467 3.9687499,3.9846762 0 0 1 -3.9687498,-3.98467 3.9687499,3.9846762 0 0 1 3.9687498,-3.98468 z"
         style="opacity:1;fill:#e74c3c;fill-opacity:1;fill-rule:nonzero;stroke:none;stroke-width:2.64583325;stroke-linecap:butt;stroke-linejoin:bevel;stroke-miterlimit:4;stroke-dasharray:none;stroke-dashoffset:0;stroke-opacity:1;paint-order:normal"
         inkscape:connector-curvature="0" />
      <path
         id="path905-5"
         d="m 13.181528,261.29459 a 9.2604169,9.297578 0 0 0 -9.260416,9.29758 9.2604169,9.297578 0 0 0 9.260416,9.29757 9.2604169,9.297578 0 0 0 9.260417,-9.29757 9.2604169,9.297578 0 0 0 -9.260417,-9.29758 z m 0,5.3129 a 3.96875,3.9846762 0 0 1 3.968751,3.98468 3.96875,3.9846762 0 0 1 -3.968751,3.98467 3.96875,3.9846762 0 0 1 -3.96875,-3.98467 3.96875,3.9846762 0 0 1 3.96875,-3.98468 z"
         style="opacity:0.58200001;fill:#c0392b;fill-opacity:1;fill-rule:nonzero;stroke:none;stroke-width:2.64583325;stroke-linecap:butt;stroke-linejoin:bevel;stroke-miterlimit:4;stroke-dasharray:none;stroke-dashoffset:0;stroke-opacity:1;paint-order:normal"
         inkscape:connector-curvature="0" />
    </g>
  </g>
</svg>
